<svg xmlns="http://www.w3.org/2000/svg" version="1.1" xmlns:xlink="http://www.w3.org/1999/xlink" xmlns:svgjs="http://svgjs.com/svgjs" width="512" height="512" x="0" y="0" viewBox="0 0 512.287 512.287" style="enable-background:new 0 0 512 512" xml:space="preserve"><g><path d="m468.346 113.108 31.296-31.296-57.64-11.528-11.528-57.641-31.298 31.297c-168.531-114.492-399.891 8.29-399.127 212.293-2.838 137.6 118.395 258.855 256.008 256.003 204.001.753 326.788-230.606 212.289-399.128zm-51.84-17.329 22.286 4.457-27.812 27.812-22.285-4.457-4.457-22.286 27.812-27.812zm-118.725 160.452c-2.292 55.355-81.169 55.341-83.453 0-.374-29.766 31.722-50.547 58.651-38.137l-27.531 27.531 21.213 21.213 27.531-27.531c2.306 5.174 3.589 10.902 3.589 16.924zm-2.751-60.189c-46.796-30.915-111.049 3.712-110.702 60.189 0 39.55 32.176 71.726 71.726 71.726 56.478.341 91.107-63.906 60.188-110.702l43.424-43.424c68.78 84.975 6.693 215.368-103.614 214.837-73.025.001-132.436-59.411-132.436-132.437-.515-110.312 129.864-172.397 214.838-103.613zm120.835 220c-142.026 141.719-385.619 40.782-385.816-159.813-.757-177.431 198.461-286.422 347.469-190.631l-25.846 25.846 7.946 39.735c-103.678-87.338-266.608-11.784-266 125.054-.001 89.567 72.868 162.436 162.437 162.436 136.843.59 212.392-162.324 125.051-266.002l39.734 7.947 25.847-25.847c56.823 86.182 43.601 209.287-30.822 281.275z" fill="#ffffff" data-original="#000000"></path></g></svg>